# xmcd
# 
# Track frame offsets:
#     150
#     12673
#     22283
#     31745
#     44728
#     54998
#     66118
#     80575
#     91658
#     103153
#     113823
#     125378
#     135945
#     147135
#     157980
#     169255
#     180318
#     193180
#     205928
#     214855
#     227330
#     239103
#     249898
#     262998
# 
# Disc length: 3654
# 
# Revision: 2
# Processed by: cddbd v1.5.2PL0 Copyright (c) Steve Scherf et al.
# Submitted via: BonkEnc v1.0.15
# 
DISCID=4a0e4418
DTITLE=Brazilian Tropical Orchestra - Plays Boleros
DYEAR=0
DGENRE=
TTITLE0=Somewhere in Time
TTITLE1=Bolero
TTITLE2=Ho Capito Che Ti Amo
TTITLE3=Marcarthur Park
TTITLE4=Yesterday
TTITLE5=Marcarthur Park
TTITLE6=Outra Vez
TTITLE7=Don't Cry For Me Argentina
TTITLE8=Too Young
TTITLE9=Detalhes
TTITLE10=(Somewhere) Over The Raimbow
TTITLE11=A Distância
TTITLE12=Something Stupid
TTITLE13=Swan Lake
TTITLE14=Living Together Gowing Together
TTITLE15=Roberta
TTITLE16=Too Much Heaven
TTITLE17=Lady Jane
TTITLE18=Love Is Blue
TTITLE19=My Way
TTITLE20=Quero Que Vá Tudo Para o Inferno
TTITLE21=Mandy
TTITLE22=If You Leave Me Now
TTITLE23=Monday Monday
EXTD=\n\n
EXTT0=
EXTT1=
EXTT2=
EXTT3=
EXTT4=
EXTT5=
EXTT6=
EXTT7=
EXTT8=
EXTT9=
EXTT10=
EXTT11=
EXTT12=
EXTT13=
EXTT14=
EXTT15=
EXTT16=
EXTT17=
EXTT18=
EXTT19=
EXTT20=
EXTT21=
EXTT22=
EXTT23=
PLAYORDER=
